<svg xmlns="http://www.w3.org/2000/svg" viewBox="0 0 17.27 17.27"><title>Asset 5</title><path d="M8.64 0C6.29 0 6 0 5.08.05A6.34 6.34 0 0 0 3 .45a4.23 4.23 0 0 0-1.53 1A4.23 4.23 0 0 0 .45 3a6.34 6.34 0 0 0-.4 2.1C0 6 0 6.29 0 8.64s0 2.64.05 3.56a6.34 6.34 0 0 0 .4 2.1 4.23 4.23 0 0 0 1 1.53 4.23 4.23 0 0 0 1.53 1 6.34 6.34 0 0 0 2.1.4c.92 0 1.22.05 3.56.05s2.64 0 3.56-.05a6.34 6.34 0 0 0 2.1-.4 4.42 4.42 0 0 0 2.53-2.53 6.34 6.34 0 0 0 .4-2.1c0-.92.05-1.22.05-3.56s0-2.64-.05-3.56a6.34 6.34 0 0 0-.4-2.1 4.23 4.23 0 0 0-1-1.53 4.23 4.23 0 0 0-1.53-1 6.34 6.34 0 0 0-2.1-.4C11.28 0 11 0 8.64 0zm0 1.56c2.31 0 2.58 0 3.49.05a4.78 4.78 0 0 1 1.6.3 2.68 2.68 0 0 1 1 .65 2.68 2.68 0 0 1 .65 1 4.78 4.78 0 0 1 .3 1.6c0 .91.05 1.18.05 3.49s0 2.58-.05 3.49a4.78 4.78 0 0 1-.3 1.6 2.86 2.86 0 0 1-1.64 1.64 4.78 4.78 0 0 1-1.6.3c-.91 0-1.18.05-3.49.05s-2.58 0-3.49-.05a4.78 4.78 0 0 1-1.6-.3 2.68 2.68 0 0 1-1-.65 2.68 2.68 0 0 1-.65-1 4.78 4.78 0 0 1-.3-1.6c0-.91-.05-1.18-.05-3.49s0-2.58.05-3.49a4.78 4.78 0 0 1 .3-1.6 2.68 2.68 0 0 1 .65-1 2.68 2.68 0 0 1 1-.65 4.78 4.78 0 0 1 1.6-.3c.9-.04 1.17-.04 3.48-.04zm0 2.65a4.44 4.44 0 1 0 4.44 4.44A4.44 4.44 0 0 0 8.64 4.2zm0 7.31a2.88 2.88 0 1 1 2.88-2.88 2.88 2.88 0 0 1-2.88 2.88zM14.28 4a1 1 0 1 1-1-1 1 1 0 0 1 1 1z" data-name="Layer 2"/></svg>