<svg xmlns="http://www.w3.org/2000/svg" viewBox="0 0 20 19.86"><defs><style>.cls-1{fill:#231f20}</style></defs><title>Asset 7</title><g id="Layer_2" data-name="Layer 2"><path class="cls-1" d="M14.91 12.16L13.74 11a7.19 7.19 0 0 0 .68-1.61 7.39 7.39 0 0 0 .27-2 8.58 8.58 0 0 0-.08-1.11 8.67 8.67 0 0 0-.19-.86c0-.13-.07-.26-.12-.39a8.12 8.12 0 0 0-.4-.94 4.66 4.66 0 0 0-.24-.42c-.13-.2-.26-.41-.4-.61a5.4 5.4 0 0 0-.59-.69 5.89 5.89 0 0 0-.62-.6h-.07a2 2 0 0 0-.35-.27 6.15 6.15 0 0 0-.8-.52c-.19-.09-.39-.19-.6-.27A7 7 0 0 0 8.82.15 6.57 6.57 0 0 0 7.35 0a7.36 7.36 0 1 0 2.27 14.35 7 7 0 0 0 1.54-.73l1.2 1.19.91.9 4.13 4.14 2.6-2.6zM11 9.25A4.1 4.1 0 0 1 9.22 11a4 4 0 0 1-1.87.46 2.8 2.8 0 0 1-.7-.07 4.1 4.1 0 1 1 4.71-4.81 3.3 3.3 0 0 1 .1.78A4.06 4.06 0 0 1 11 9.25z" id="design"/></g></svg>