<svg xmlns="http://www.w3.org/2000/svg" viewBox="0 0 15.45 12.5"><defs><style>.cls-1{fill-rule:evenodd;}</style></defs><title>Asset 2</title><g id="Layer_2" data-name="Layer 2"><g id="design"><path class="cls-1" d="M13.72,1.95a4.49,4.49,0,0,0,1.74-.47s-.12.43-1.61,1.78a8.86,8.86,0,0,1-7.15,9.08S2.81,13.17,0,11.06c0,0,2.94.52,4.6-1.31A3,3,0,0,1,1.79,7.59a2.56,2.56,0,0,0,1.29,0A3.08,3.08,0,0,1,.7,4.41a2,2,0,0,0,1.24.39S-.24,2.95,1.11.64c0,0,2.92,3.45,6.54,3.25a3.11,3.11,0,0,1,5.23-3A3.56,3.56,0,0,0,15,.25S15,.92,13.72,1.95Z"/></g></g></svg>